<svg width="121" height="41" viewBox="0 0 121 41" fill="none" xmlns="http://www.w3.org/2000/svg">
<rect x="1" y="1.30908" width="119" height="39" rx="3.5" fill="white"/>
<path d="M82.0259 20.0099V22.301H80.5899V23.8034H82.0259V28.9084C82.0259 30.6515 82.8145 31.3488 84.7984 31.3488C85.147 31.3488 85.4791 31.3073 85.7696 31.2575V29.7717C85.5206 29.7966 85.3628 29.8132 85.0889 29.8132C84.2007 29.8132 83.8106 29.3981 83.8106 28.4518V23.8034H85.7696V22.301H83.8106V20.0099H82.0259Z" fill="black"/>
<path d="M90.8234 31.4733C93.4631 31.4733 95.0817 29.7053 95.0817 26.7751C95.0817 23.8615 93.4548 22.0851 90.8234 22.0851C88.1838 22.0851 86.5568 23.8615 86.5568 26.7751C86.5568 29.7053 88.1755 31.4733 90.8234 31.4733ZM90.8234 29.8879C89.2712 29.8879 88.3996 28.7507 88.3996 26.7751C88.3996 24.8161 89.2712 23.6706 90.8234 23.6706C92.3674 23.6706 93.2473 24.8161 93.2473 26.7751C93.2473 28.7424 92.3674 29.8879 90.8234 29.8879Z" fill="black"/>
<path d="M96.4666 31.299H98.2513V25.9616C98.2513 24.6916 99.2059 23.8366 100.559 23.8366C100.874 23.8366 101.406 23.8947 101.555 23.9445V22.1847C101.364 22.1349 101.024 22.11 100.758 22.11C99.5794 22.11 98.575 22.7575 98.3177 23.6457H98.1849V22.2595H96.4666V31.299Z" fill="black"/>
<path d="M105.986 23.6042C107.306 23.6042 108.169 24.5256 108.211 25.945H103.645C103.745 24.5339 104.666 23.6042 105.986 23.6042ZM108.203 28.8586C107.871 29.5641 107.132 29.9543 106.053 29.9543C104.625 29.9543 103.704 28.9499 103.645 27.3644V27.2648H110.029V26.6423C110.029 23.8034 108.51 22.0851 105.995 22.0851C103.446 22.0851 101.828 23.9196 101.828 26.8083C101.828 29.697 103.413 31.4733 106.003 31.4733C108.07 31.4733 109.514 30.4772 109.921 28.8586H108.203Z" fill="black"/>
<path d="M70.3223 27.9608C70.46 30.1805 72.3098 31.6001 75.0629 31.6001C78.0053 31.6001 79.8464 30.1117 79.8464 27.7371C79.8464 25.8702 78.7968 24.8378 76.2502 24.2441L74.8822 23.9086C73.2647 23.53 72.6109 23.0224 72.6109 22.1363C72.6109 21.0178 73.6261 20.2865 75.1489 20.2865C76.5943 20.2865 77.5923 21.0006 77.773 22.1449H79.6486C79.5367 20.0542 77.6956 18.583 75.1747 18.583C72.4646 18.583 70.6579 20.0542 70.6579 22.2653C70.6579 24.0893 71.6817 25.1733 73.9272 25.6981L75.5275 26.0853C77.1707 26.4724 77.8934 27.0403 77.8934 27.9867C77.8934 29.0879 76.7578 29.888 75.2091 29.888C73.5487 29.888 72.3958 29.1395 72.2323 27.9608H70.3223Z" fill="black"/>
<path d="M51.835 22.11C50.6065 22.11 49.544 22.7243 48.9961 23.7536H48.8633V22.2595H47.1451V34.3039H48.9297V29.9294H49.0708C49.544 30.884 50.565 31.4484 51.8516 31.4484C54.1343 31.4484 55.587 29.6471 55.587 26.7751C55.587 23.903 54.1343 22.11 51.835 22.11ZM51.3287 29.8464C49.8345 29.8464 48.8965 28.6677 48.8965 26.7834C48.8965 24.8908 49.8345 23.7121 51.337 23.7121C52.8477 23.7121 53.7525 24.8659 53.7525 26.7751C53.7525 28.6926 52.8477 29.8464 51.3287 29.8464Z" fill="black"/>
<path d="M61.8318 22.11C60.6033 22.11 59.5408 22.7243 58.9929 23.7536H58.8601V22.2595H57.1419V34.3039H58.9265V29.9294H59.0676C59.5408 30.884 60.5618 31.4484 61.8484 31.4484C64.1311 31.4484 65.5838 29.6471 65.5838 26.7751C65.5838 23.903 64.1311 22.11 61.8318 22.11ZM61.3255 29.8464C59.8313 29.8464 58.8933 28.6677 58.8933 26.7834C58.8933 24.8908 59.8313 23.7121 61.3338 23.7121C62.8445 23.7121 63.7493 24.8659 63.7493 26.7751C63.7493 28.6926 62.8445 29.8464 61.3255 29.8464Z" fill="black"/>
<path d="M43.9431 31.299H45.9907L41.5083 18.8841H39.4348L34.9524 31.299H36.9312L38.0755 28.0039H42.8074L43.9431 31.299ZM40.3726 21.1383H40.5189L42.317 26.3864H38.5659L40.3726 21.1383Z" fill="black"/>
<path d="M36.1511 9.52002V15.509H38.3135C40.0981 15.509 41.1316 14.4092 41.1316 12.4958C41.1316 10.6116 40.0898 9.52002 38.3135 9.52002H36.1511ZM37.0808 10.3667H38.2097C39.4507 10.3667 40.1853 11.1553 40.1853 12.5083C40.1853 13.8821 39.4631 14.6624 38.2097 14.6624H37.0808V10.3667Z" fill="black"/>
<path d="M44.2967 15.5962C45.6165 15.5962 46.4258 14.7122 46.4258 13.2471C46.4258 11.7903 45.6124 10.9021 44.2967 10.9021C42.9769 10.9021 42.1634 11.7903 42.1634 13.2471C42.1634 14.7122 42.9727 15.5962 44.2967 15.5962ZM44.2967 14.8035C43.5206 14.8035 43.0848 14.2349 43.0848 13.2471C43.0848 12.2676 43.5206 11.6948 44.2967 11.6948C45.0687 11.6948 45.5086 12.2676 45.5086 13.2471C45.5086 14.2307 45.0687 14.8035 44.2967 14.8035Z" fill="black"/>
<path d="M53.318 10.9893H52.4256L51.6205 14.4382H51.5499L50.6202 10.9893H49.7652L48.8355 14.4382H48.7691L47.9598 10.9893H47.055L48.3001 15.509H49.2174L50.1471 12.1804H50.2176L51.1515 15.509H52.077L53.318 10.9893Z" fill="black"/>
<path d="M54.3456 15.509H55.2379V12.8652C55.2379 12.1597 55.6571 11.7197 56.317 11.7197C56.977 11.7197 57.2924 12.0808 57.2924 12.8071V15.509H58.1847V12.583C58.1847 11.5081 57.6286 10.9021 56.62 10.9021C55.9394 10.9021 55.4911 11.2051 55.2711 11.7073H55.2047V10.9893H54.3456V15.509Z" fill="black"/>
<path d="M59.59 15.509H60.4824V9.22534H59.59V15.509Z" fill="black"/>
<path d="M63.8384 15.5962C65.1582 15.5962 65.9675 14.7122 65.9675 13.2471C65.9675 11.7903 65.1541 10.9021 63.8384 10.9021C62.5186 10.9021 61.7051 11.7903 61.7051 13.2471C61.7051 14.7122 62.5144 15.5962 63.8384 15.5962ZM63.8384 14.8035C63.0623 14.8035 62.6265 14.2349 62.6265 13.2471C62.6265 12.2676 63.0623 11.6948 63.8384 11.6948C64.6104 11.6948 65.0503 12.2676 65.0503 13.2471C65.0503 14.2307 64.6104 14.8035 63.8384 14.8035Z" fill="black"/>
<path d="M68.6263 14.8325C68.1407 14.8325 67.7879 14.5959 67.7879 14.1892C67.7879 13.7908 68.0701 13.5791 68.6927 13.5376L69.7967 13.467V13.8447C69.7967 14.405 69.2986 14.8325 68.6263 14.8325ZM68.398 15.5837C68.9915 15.5837 69.4854 15.3264 69.7552 14.874H69.8257V15.509H70.6849V12.4211C70.6849 11.4666 70.0457 10.9021 68.9126 10.9021C67.8875 10.9021 67.157 11.4001 67.0657 12.1763H67.929C68.0286 11.8567 68.3731 11.6741 68.8711 11.6741C69.4812 11.6741 69.7967 11.9438 69.7967 12.4211V12.8113L68.5723 12.8818C67.4974 12.9482 66.8914 13.4172 66.8914 14.2307C66.8914 15.0566 67.5264 15.5837 68.398 15.5837Z" fill="black"/>
<path d="M73.713 15.5837C74.3355 15.5837 74.8626 15.2891 75.1324 14.7952H75.203V15.509H76.058V9.22534H75.1656V11.7073H75.0992C74.8543 11.2092 74.3314 10.9146 73.713 10.9146C72.5716 10.9146 71.837 11.8193 71.837 13.2471C71.837 14.679 72.5633 15.5837 73.713 15.5837ZM73.9662 11.7156C74.7132 11.7156 75.1822 12.3091 75.1822 13.2512C75.1822 14.1975 74.7174 14.7827 73.9662 14.7827C73.2108 14.7827 72.7584 14.2058 72.7584 13.2471C72.7584 12.2966 73.2149 11.7156 73.9662 11.7156Z" fill="black"/>
<path d="M81.8444 15.5962C83.1643 15.5962 83.9736 14.7122 83.9736 13.2471C83.9736 11.7903 83.1601 10.9021 81.8444 10.9021C80.5246 10.9021 79.7111 11.7903 79.7111 13.2471C79.7111 14.7122 80.5205 15.5962 81.8444 15.5962ZM81.8444 14.8035C81.0683 14.8035 80.6325 14.2349 80.6325 13.2471C80.6325 12.2676 81.0683 11.6948 81.8444 11.6948C82.6164 11.6948 83.0563 12.2676 83.0563 13.2471C83.0563 14.2307 82.6164 14.8035 81.8444 14.8035Z" fill="black"/>
<path d="M85.1548 15.509H86.0471V12.8652C86.0471 12.1597 86.4663 11.7197 87.1262 11.7197C87.7861 11.7197 88.1016 12.0808 88.1016 12.8071V15.509H88.9939V12.583C88.9939 11.5081 88.4377 10.9021 87.4292 10.9021C86.7485 10.9021 86.3003 11.2051 86.0803 11.7073H86.0139V10.9893H85.1548V15.509Z" fill="black"/>
<path d="M93.1036 9.8645V11.01H92.3856V11.7612H93.1036V14.3137C93.1036 15.1853 93.4979 15.5339 94.4898 15.5339C94.6642 15.5339 94.8302 15.5132 94.9754 15.4883V14.7454C94.8509 14.7578 94.7721 14.7661 94.6351 14.7661C94.191 14.7661 93.9959 14.5586 93.9959 14.0854V11.7612H94.9754V11.01H93.9959V9.8645H93.1036Z" fill="black"/>
<path d="M96.1732 15.509H97.0656V12.8694C97.0656 12.1846 97.4723 11.7239 98.2028 11.7239C98.8336 11.7239 99.1698 12.0891 99.1698 12.8113V15.509H100.062V12.5913C100.062 11.5164 99.4687 10.9062 98.5058 10.9062C97.8251 10.9062 97.3478 11.2092 97.1278 11.7156H97.0573V9.22534H96.1732V15.509Z" fill="black"/>
<path d="M103.281 11.6616C103.941 11.6616 104.373 12.1223 104.394 12.832H102.111C102.161 12.1265 102.621 11.6616 103.281 11.6616ZM104.389 14.2888C104.223 14.6416 103.854 14.8367 103.314 14.8367C102.601 14.8367 102.14 14.3345 102.111 13.5417V13.4919H105.302V13.1807C105.302 11.7612 104.543 10.9021 103.285 10.9021C102.011 10.9021 101.202 11.8193 101.202 13.2637C101.202 14.708 101.995 15.5962 103.289 15.5962C104.323 15.5962 105.045 15.0981 105.248 14.2888H104.389Z" fill="black"/>
<path d="M25.269 21.1099C25.2907 19.4289 26.1934 17.8383 27.6256 16.9578C26.7221 15.6675 25.2088 14.8494 23.6344 14.8002C21.9552 14.6239 20.3272 15.805 19.4715 15.805C18.5992 15.805 17.2817 14.8177 15.863 14.8468C14.0137 14.9066 12.2898 15.958 11.3901 17.5747C9.45607 20.9231 10.8987 25.8442 12.7513 28.5508C13.6782 29.8761 14.7615 31.3566 16.1789 31.3041C17.566 31.2466 18.084 30.4196 19.7583 30.4196C21.4171 30.4196 21.9031 31.3041 23.3493 31.2707C24.8377 31.2466 25.7754 29.9395 26.6698 28.6016C27.3358 27.6572 27.8483 26.6135 28.1882 25.5091C26.4391 24.7693 25.271 23.009 25.269 21.1099Z" fill="black"/>
<path d="M22.5373 13.0202C23.3489 12.046 23.7487 10.7938 23.6518 9.52954C22.412 9.65976 21.2668 10.2523 20.4443 11.1892C19.64 12.1045 19.2214 13.3346 19.3006 14.5505C20.5408 14.5633 21.7601 13.9868 22.5373 13.0202Z" fill="black"/>
<rect x="1" y="1.30908" width="119" height="39" rx="3.5" stroke="black"/>
</svg>
