<svg width="136" height="41" viewBox="0 0 136 41" fill="none" xmlns="http://www.w3.org/2000/svg">
<rect x="1" y="1.30908" width="134" height="39" rx="3.5" fill="white"/>
<path d="M68.636 22.5602C66.284 22.5602 64.367 24.3492 64.367 26.8132C64.367 29.2622 66.284 31.0662 68.636 31.0662C70.989 31.0662 72.906 29.2622 72.906 26.8132C72.905 24.3492 70.988 22.5602 68.636 22.5602ZM68.636 29.3922C67.347 29.3922 66.236 28.3292 66.236 26.8142C66.236 25.2832 67.348 24.2362 68.636 24.2362C69.925 24.2362 71.036 25.2832 71.036 26.8142C71.036 28.3282 69.925 29.3922 68.636 29.3922ZM59.322 22.5602C56.97 22.5602 55.053 24.3492 55.053 26.8132C55.053 29.2622 56.97 31.0662 59.322 31.0662C61.675 31.0662 63.592 29.2622 63.592 26.8132C63.592 24.3492 61.675 22.5602 59.322 22.5602ZM59.322 29.3922C58.033 29.3922 56.922 28.3292 56.922 26.8142C56.922 25.2832 58.034 24.2362 59.322 24.2362C60.611 24.2362 61.722 25.2832 61.722 26.8142C61.723 28.3282 60.611 29.3922 59.322 29.3922ZM48.244 23.8662V25.6702H52.562C52.433 26.6852 52.095 27.4262 51.579 27.9412C50.951 28.5692 49.968 29.2622 48.244 29.2622C45.586 29.2622 43.508 27.1192 43.508 24.4612C43.508 21.8032 45.586 19.6602 48.244 19.6602C49.678 19.6602 50.725 20.2242 51.498 20.9492L52.771 19.6762C51.691 18.6452 50.258 17.8562 48.244 17.8562C44.603 17.8562 41.542 20.8202 41.542 24.4612C41.542 28.1022 44.603 31.0662 48.244 31.0662C50.209 31.0662 51.692 30.4212 52.851 29.2132C54.043 28.0212 54.414 26.3452 54.414 24.9922C54.414 24.5742 54.382 24.1872 54.317 23.8652H48.244V23.8662ZM93.552 25.2672C93.198 24.3172 92.118 22.5602 89.911 22.5602C87.72 22.5602 85.899 24.2842 85.899 26.8132C85.899 29.1972 87.704 31.0662 90.12 31.0662C92.069 31.0662 93.197 29.8742 93.665 29.1812L92.215 28.2142C91.732 28.9232 91.071 29.3902 90.12 29.3902C89.17 29.3902 88.493 28.9552 88.058 28.1012L93.745 25.7492L93.552 25.2672ZM87.752 26.6852C87.704 25.0412 89.025 24.2042 89.976 24.2042C90.717 24.2042 91.345 24.5752 91.555 25.1062L87.752 26.6852ZM83.129 30.8092H84.997V18.3082H83.129V30.8092ZM80.067 23.5112H80.003C79.584 23.0112 78.778 22.5602 77.764 22.5602C75.637 22.5602 73.688 24.4292 73.688 26.8302C73.688 29.2142 75.637 31.0672 77.764 31.0672C78.779 31.0672 79.584 30.6162 80.003 30.1012H80.067V30.7132C80.067 32.3402 79.197 33.2102 77.796 33.2102C76.652 33.2102 75.943 32.3892 75.653 31.6962L74.026 32.3732C74.493 33.5002 75.733 34.8862 77.796 34.8862C79.987 34.8862 81.84 33.5972 81.84 30.4552V22.8192H80.068V23.5112H80.067ZM77.925 29.3922C76.636 29.3922 75.557 28.3122 75.557 26.8302C75.557 25.3312 76.636 24.2362 77.925 24.2362C79.197 24.2362 80.196 25.3312 80.196 26.8302C80.196 28.3122 79.197 29.3922 77.925 29.3922ZM102.306 18.3082H97.835V30.8092H99.7V26.0732H102.305C104.373 26.0732 106.407 24.5762 106.407 22.1912C106.407 19.8062 104.374 18.3082 102.306 18.3082ZM102.354 24.3332H99.7V20.0482H102.354C103.749 20.0482 104.541 21.2032 104.541 22.1912C104.541 23.1592 103.749 24.3332 102.354 24.3332ZM113.886 22.5382C112.535 22.5382 111.136 23.1332 110.557 24.4522L112.213 25.1432C112.567 24.4522 113.227 24.2262 113.918 24.2262C114.883 24.2262 115.864 24.8052 115.88 25.8342V25.9632C115.542 25.7702 114.818 25.4812 113.934 25.4812C112.149 25.4812 110.331 26.4622 110.331 28.2952C110.331 29.9682 111.795 31.0452 113.435 31.0452C114.689 31.0452 115.381 30.4822 115.815 29.8222H115.879V30.7872H117.681V25.9942C117.682 23.7762 116.024 22.5382 113.886 22.5382ZM113.66 29.3892C113.05 29.3892 112.197 29.0832 112.197 28.3272C112.197 27.3622 113.259 26.9922 114.176 26.9922C114.995 26.9922 115.382 27.1692 115.88 27.4102C115.735 28.5692 114.738 29.3892 113.66 29.3892ZM124.243 22.8112L122.104 28.2312H122.04L119.82 22.8112H117.81L121.139 30.3862L119.241 34.6002H121.187L126.318 22.8112H124.243ZM107.437 30.8092H109.302V18.3082H107.437V30.8092Z" fill="black"/>
<path d="M47.918 11.052C47.918 11.89 47.6701 12.557 47.173 13.055C46.609 13.647 45.8731 13.943 44.9691 13.943C44.1031 13.943 43.3661 13.643 42.7611 13.043C42.1551 12.442 41.8521 11.698 41.8521 10.81C41.8521 9.92103 42.1551 9.17703 42.7611 8.57703C43.3661 7.97603 44.1031 7.67603 44.9691 7.67603C45.3991 7.67603 45.8101 7.76003 46.2001 7.92703C46.5911 8.09503 46.904 8.31803 47.1381 8.59703L46.611 9.12503C46.214 8.65003 45.667 8.41303 44.968 8.41303C44.336 8.41303 43.79 8.63503 43.329 9.07903C42.868 9.52303 42.6381 10.1 42.6381 10.809C42.6381 11.518 42.868 12.095 43.329 12.539C43.79 12.983 44.336 13.205 44.968 13.205C45.638 13.205 46.1971 12.982 46.6441 12.535C46.9341 12.244 47.102 11.839 47.147 11.32H44.968V10.599H47.875C47.905 10.756 47.918 10.907 47.918 11.052Z" fill="black"/>
<path d="M52.5281 8.54608H49.7961V10.4481H52.2601V11.1691H49.7961V13.0711H52.5281V13.8091H49.0251V7.80908H52.5281V8.54608Z" fill="black"/>
<path d="M55.779 13.8091H55.008V8.54608H53.332V7.80908H57.455V8.54608H55.779V13.8091Z" fill="black"/>
<path d="M60.438 13.8091V7.80908H61.209V13.8091H60.438Z" fill="black"/>
<path d="M64.6281 13.8091H63.8572V8.54608H62.1812V7.80908H66.3042V8.54608H64.6281V13.8091Z" fill="black"/>
<path d="M74.1089 13.0341C73.5189 13.6401 72.7859 13.9431 71.9089 13.9431C71.0319 13.9431 70.2989 13.6401 69.7099 13.0341C69.1199 12.4281 68.8259 11.6861 68.8259 10.8091C68.8259 9.93207 69.1199 9.19007 69.7099 8.58407C70.2989 7.97807 71.0319 7.67407 71.9089 7.67407C72.7809 7.67407 73.5129 7.97907 74.1049 8.58807C74.6969 9.19707 74.9929 9.93707 74.9929 10.8091C74.9929 11.6861 74.6979 12.4281 74.1089 13.0341ZM70.2789 12.5311C70.7229 12.9811 71.2659 13.2051 71.9089 13.2051C72.5519 13.2051 73.0959 12.9801 73.5389 12.5311C73.9829 12.0811 74.2059 11.5071 74.2059 10.8091C74.2059 10.1111 73.9829 9.53707 73.5389 9.08707C73.0959 8.63707 72.5519 8.41307 71.9089 8.41307C71.2659 8.41307 70.7229 8.63807 70.2789 9.08707C69.8359 9.53707 69.6129 10.1111 69.6129 10.8091C69.6129 11.5071 69.8359 12.0811 70.2789 12.5311Z" fill="black"/>
<path d="M76.0749 13.8091V7.80908H77.013L79.929 12.4761H79.9619L79.929 11.3201V7.80908H80.6999V13.8091H79.8949L76.844 8.91508H76.8109L76.844 10.0711V13.8091H76.0749Z" fill="black"/>
<path d="M47.918 11.052C47.918 11.89 47.6701 12.557 47.173 13.055C46.609 13.647 45.8731 13.943 44.9691 13.943C44.1031 13.943 43.3661 13.643 42.7611 13.043C42.1551 12.442 41.8521 11.698 41.8521 10.81C41.8521 9.92103 42.1551 9.17703 42.7611 8.57703C43.3661 7.97603 44.1031 7.67603 44.9691 7.67603C45.3991 7.67603 45.8101 7.76003 46.2001 7.92703C46.5911 8.09503 46.904 8.31803 47.1381 8.59703L46.611 9.12503C46.214 8.65003 45.667 8.41303 44.968 8.41303C44.336 8.41303 43.79 8.63503 43.329 9.07903C42.868 9.52303 42.6381 10.1 42.6381 10.809C42.6381 11.518 42.868 12.095 43.329 12.539C43.79 12.983 44.336 13.205 44.968 13.205C45.638 13.205 46.1971 12.982 46.6441 12.535C46.9341 12.244 47.102 11.839 47.147 11.32H44.968V10.599H47.875C47.905 10.756 47.918 10.907 47.918 11.052Z" stroke="black" stroke-width="0.2" stroke-miterlimit="10"/>
<path d="M52.5281 8.54608H49.7961V10.4481H52.2601V11.1691H49.7961V13.0711H52.5281V13.8091H49.0251V7.80908H52.5281V8.54608Z" stroke="black" stroke-width="0.2" stroke-miterlimit="10"/>
<path d="M55.779 13.8091H55.008V8.54608H53.332V7.80908H57.455V8.54608H55.779V13.8091Z" stroke="black" stroke-width="0.2" stroke-miterlimit="10"/>
<path d="M60.438 13.8091V7.80908H61.209V13.8091H60.438Z" stroke="black" stroke-width="0.2" stroke-miterlimit="10"/>
<path d="M64.6281 13.8091H63.8572V8.54608H62.1812V7.80908H66.3042V8.54608H64.6281V13.8091Z" stroke="black" stroke-width="0.2" stroke-miterlimit="10"/>
<path d="M74.1089 13.0341C73.5189 13.6401 72.7859 13.9431 71.9089 13.9431C71.0319 13.9431 70.2989 13.6401 69.7099 13.0341C69.1199 12.4281 68.8259 11.6861 68.8259 10.8091C68.8259 9.93207 69.1199 9.19007 69.7099 8.58407C70.2989 7.97807 71.0319 7.67407 71.9089 7.67407C72.7809 7.67407 73.5129 7.97907 74.1049 8.58807C74.6969 9.19707 74.9929 9.93707 74.9929 10.8091C74.9929 11.6861 74.6979 12.4281 74.1089 13.0341ZM70.2789 12.5311C70.7229 12.9811 71.2659 13.2051 71.9089 13.2051C72.5519 13.2051 73.0959 12.9801 73.5389 12.5311C73.9829 12.0811 74.2059 11.5071 74.2059 10.8091C74.2059 10.1111 73.9829 9.53707 73.5389 9.08707C73.0959 8.63707 72.5519 8.41307 71.9089 8.41307C71.2659 8.41307 70.7229 8.63807 70.2789 9.08707C69.8359 9.53707 69.6129 10.1111 69.6129 10.8091C69.6129 11.5071 69.8359 12.0811 70.2789 12.5311Z" stroke="black" stroke-width="0.2" stroke-miterlimit="10"/>
<path d="M76.0749 13.8091V7.80908H77.013L79.929 12.4761H79.9619L79.929 11.3201V7.80908H80.6999V13.8091H79.8949L76.844 8.91508H76.8109L76.844 10.0711V13.8091H76.0749Z" stroke="black" stroke-width="0.2" stroke-miterlimit="10"/>
<path fill-rule="evenodd" clip-rule="evenodd" d="M10.6564 8.7755C10.5383 9.043 10.473 9.37076 10.473 9.75202V31.868C10.473 32.2501 10.5384 32.5779 10.6566 32.8453L22.6905 20.8096L10.6564 8.7755ZM11.3516 33.5645C11.7977 33.7554 12.3795 33.6948 13.014 33.335L27.1711 25.2902L23.3976 21.5168L11.3516 33.5645ZM28.0736 24.7785L32.515 22.255C33.912 21.46 33.912 20.161 32.515 19.367L28.0716 16.8421L24.1047 20.8096L28.0736 24.7785ZM27.1698 16.3297L13.014 8.28603C12.3795 7.92545 11.7976 7.86529 11.3515 8.05642L23.3976 20.1025L27.1698 16.3297Z" fill="black"/>
<rect x="1" y="1.30908" width="134" height="39" rx="3.5" stroke="black"/>
</svg>
